<svg xmlns="http://www.w3.org/2000/svg" xmlns:xlink="http://www.w3.org/1999/xlink" xmlns:serif="http://www.serif.com/"
    viewBox="0 0 32 40" version="1.1" xml:space="preserve" style="" x="0px" y="0px" fill-rule="evenodd"
    clip-rule="evenodd" fill="white" stroke-linejoin="round" stroke-miterlimit="2">
    <path
        d="M27,4.001c-0,-0.796 -0.316,-1.559 -0.879,-2.122c-0.562,-0.563 -1.326,-0.879 -2.121,-0.879c-3.833,-0 -12.169,-0 -16,-0c-1.657,-0 -3,1.343 -3,2.999l-0.004,23.998c-0.001,1.184 0.696,2.258 1.779,2.741c1.082,0.482 2.347,0.282 3.227,-0.511c1.819,-1.637 3.969,-3.571 5.324,-4.791c0.38,-0.342 0.957,-0.342 1.338,-0l5.325,4.792c0.88,0.793 2.145,0.993 3.227,0.511c1.082,-0.482 1.779,-1.555 1.78,-2.74c0.001,-6.73 0.003,-19.16 0.004,-23.998Zm-2.004,23.998l0.004,-23.999c-0,-0.265 -0.106,-0.519 -0.293,-0.707c-0.188,-0.188 -0.442,-0.293 -0.707,-0.293c-3.833,-0 -12.169,-0 -16,-0c-0.553,-0 -1,0.448 -1,1l-0.001,2l17.001,-0l-0,2l-17.001,-0l-0.003,19.997c-0.001,0.395 0.232,0.753 0.593,0.914c0.36,0.16 0.782,0.094 1.075,-0.171c1.819,-1.636 3.969,-3.571 5.324,-4.791c1.141,-1.026 2.873,-1.026 4.014,0c-0,0 5.325,4.793 5.325,4.793c0.293,0.264 0.715,0.331 1.075,0.17c0.361,-0.161 0.593,-0.518 0.594,-0.913Z" />
</svg>